<?xml version="1.0" encoding="UTF-8" standalone="no"?>
<!DOCTYPE svg PUBLIC "-//W3C//DTD SVG 1.1//EN"
 "http://www.w3.org/Graphics/SVG/1.1/DTD/svg11.dtd">
<!-- Generated by graphviz version 3.0.0 (20220226.1711)
 -->
<!-- Pages: 1 -->
<svg width="509pt" height="332pt"
 viewBox="0.00 0.00 508.99 332.00" xmlns="http://www.w3.org/2000/svg" xmlns:xlink="http://www.w3.org/1999/xlink">
<g id="graph0" class="graph" transform="scale(1 1) rotate(0) translate(4 328)">
<polygon fill="white" stroke="transparent" points="-4,4 -4,-328 504.99,-328 504.99,4 -4,4"/>
<!-- atlantis_ecs_service -->
<g id="node1" class="node">
<title>atlantis_ecs_service</title>
<ellipse fill="none" stroke="black" cx="265.05" cy="-306" rx="81.49" ry="18"/>
<text text-anchor="middle" x="265.05" y="-302.3" font-family="Times,serif" font-size="14.00">atlantis_ecs_service</text>
</g>
<!-- ecs_cluster -->
<g id="node2" class="node">
<title>ecs_cluster</title>
<ellipse fill="none" stroke="black" cx="50.05" cy="-162" rx="50.09" ry="18"/>
<text text-anchor="middle" x="50.05" y="-158.3" font-family="Times,serif" font-size="14.00">ecs_cluster</text>
</g>
<!-- atlantis_ecs_service&#45;&gt;ecs_cluster -->
<g id="edge1" class="edge">
<title>atlantis_ecs_service&#45;&gt;ecs_cluster</title>
<path fill="none" stroke="black" d="M206.55,-293.33C176.75,-285.3 141.18,-272.31 114.05,-252 91.68,-235.26 73.93,-208.47 62.85,-188.65"/>
<polygon fill="black" stroke="black" points="65.92,-186.96 58.09,-179.82 59.75,-190.28 65.92,-186.96"/>
</g>
<!-- atlantis_ecs_task_definition -->
<g id="node3" class="node">
<title>atlantis_ecs_task_definition</title>
<ellipse fill="none" stroke="black" cx="265.05" cy="-234" rx="108.58" ry="18"/>
<text text-anchor="middle" x="265.05" y="-230.3" font-family="Times,serif" font-size="14.00">atlantis_ecs_task_definition</text>
</g>
<!-- atlantis_ecs_service&#45;&gt;atlantis_ecs_task_definition -->
<g id="edge2" class="edge">
<title>atlantis_ecs_service&#45;&gt;atlantis_ecs_task_definition</title>
<path fill="none" stroke="black" d="M265.05,-287.7C265.05,-279.98 265.05,-270.71 265.05,-262.11"/>
<polygon fill="black" stroke="black" points="268.55,-262.1 265.05,-252.1 261.55,-262.1 268.55,-262.1"/>
</g>
<!-- network -->
<g id="node4" class="node">
<title>network</title>
<ellipse fill="none" stroke="black" cx="181.05" cy="-18" rx="39.79" ry="18"/>
<text text-anchor="middle" x="181.05" y="-14.3" font-family="Times,serif" font-size="14.00">network</text>
</g>
<!-- atlantis_ecs_service&#45;&gt;network -->
<g id="edge3" class="edge">
<title>atlantis_ecs_service&#45;&gt;network</title>
<path fill="none" stroke="black" d="M207.09,-293.29C184.36,-285.56 160.53,-272.83 147.05,-252 104.85,-186.79 144.01,-90.04 167.01,-44.48"/>
<polygon fill="black" stroke="black" points="170.14,-46.05 171.64,-35.57 163.93,-42.83 170.14,-46.05"/>
</g>
<!-- security_groups -->
<g id="node5" class="node">
<title>security_groups</title>
<ellipse fill="none" stroke="black" cx="276.05" cy="-90" rx="66.89" ry="18"/>
<text text-anchor="middle" x="276.05" y="-86.3" font-family="Times,serif" font-size="14.00">security_groups</text>
</g>
<!-- atlantis_ecs_service&#45;&gt;security_groups -->
<g id="edge4" class="edge">
<title>atlantis_ecs_service&#45;&gt;security_groups</title>
<path fill="none" stroke="black" d="M323,-293.29C345.74,-285.56 369.56,-272.83 383.05,-252 415.46,-201.91 351.27,-143.76 309.01,-112.89"/>
<polygon fill="black" stroke="black" points="310.8,-109.87 300.62,-106.91 306.73,-115.57 310.8,-109.87"/>
</g>
<!-- service_registry -->
<g id="node6" class="node">
<title>service_registry</title>
<ellipse fill="none" stroke="black" cx="434.05" cy="-90" rx="66.89" ry="18"/>
<text text-anchor="middle" x="434.05" y="-86.3" font-family="Times,serif" font-size="14.00">service_registry</text>
</g>
<!-- atlantis_ecs_service&#45;&gt;service_registry -->
<g id="edge5" class="edge">
<title>atlantis_ecs_service&#45;&gt;service_registry</title>
<path fill="none" stroke="black" d="M328.18,-294.51C354.64,-286.97 383.5,-274.06 402.05,-252 433.81,-214.2 437.24,-153.83 436.13,-118.74"/>
<polygon fill="black" stroke="black" points="439.61,-118.13 435.65,-108.3 432.62,-118.45 439.61,-118.13"/>
</g>
<!-- ecs_cluster&#45;&gt;network -->
<g id="edge7" class="edge">
<title>ecs_cluster&#45;&gt;network</title>
<path fill="none" stroke="black" d="M60.12,-144.2C71.79,-125.48 92.22,-94.85 114.05,-72 125.37,-60.15 139.4,-48.65 151.69,-39.42"/>
<polygon fill="black" stroke="black" points="153.88,-42.15 159.87,-33.4 149.74,-36.51 153.88,-42.15"/>
</g>
<!-- efs -->
<g id="node7" class="node">
<title>efs</title>
<ellipse fill="none" stroke="black" cx="265.05" cy="-162" rx="27" ry="18"/>
<text text-anchor="middle" x="265.05" y="-158.3" font-family="Times,serif" font-size="14.00">efs</text>
</g>
<!-- atlantis_ecs_task_definition&#45;&gt;efs -->
<g id="edge6" class="edge">
<title>atlantis_ecs_task_definition&#45;&gt;efs</title>
<path fill="none" stroke="black" d="M265.05,-215.7C265.05,-207.98 265.05,-198.71 265.05,-190.11"/>
<polygon fill="black" stroke="black" points="268.55,-190.1 265.05,-180.1 261.55,-190.1 268.55,-190.1"/>
</g>
<!-- security_groups&#45;&gt;network -->
<g id="edge10" class="edge">
<title>security_groups&#45;&gt;network</title>
<path fill="none" stroke="black" d="M254.01,-72.76C240.63,-62.91 223.43,-50.23 209.08,-39.66"/>
<polygon fill="black" stroke="black" points="211.15,-36.83 201.02,-33.72 206.99,-42.47 211.15,-36.83"/>
</g>
<!-- service_registry&#45;&gt;network -->
<g id="edge11" class="edge">
<title>service_registry&#45;&gt;network</title>
<path fill="none" stroke="black" d="M389.11,-76.57C342.28,-63.61 269.45,-43.46 223.55,-30.76"/>
<polygon fill="black" stroke="black" points="224.47,-27.38 213.9,-28.09 222.6,-34.13 224.47,-27.38"/>
</g>
<!-- efs&#45;&gt;network -->
<g id="edge8" class="edge">
<title>efs&#45;&gt;network</title>
<path fill="none" stroke="black" d="M244.89,-149.72C230.18,-140.42 210.98,-125.89 200.05,-108 188.68,-89.4 184.05,-65.01 182.19,-46.47"/>
<polygon fill="black" stroke="black" points="185.67,-46 181.39,-36.31 178.69,-46.55 185.67,-46"/>
</g>
<!-- efs&#45;&gt;security_groups -->
<g id="edge9" class="edge">
<title>efs&#45;&gt;security_groups</title>
<path fill="none" stroke="black" d="M267.71,-144.05C268.92,-136.35 270.38,-127.03 271.75,-118.36"/>
<polygon fill="black" stroke="black" points="275.24,-118.7 273.33,-108.28 268.32,-117.61 275.24,-118.7"/>
</g>
</g>
</svg>
