<?xml version="1.0" encoding="UTF-8" standalone="no"?>
<!DOCTYPE svg PUBLIC "-//W3C//DTD SVG 1.1//EN"
 "http://www.w3.org/Graphics/SVG/1.1/DTD/svg11.dtd">
<!-- Generated by graphviz version 2.49.3 (20211023.0002)
 -->
<!-- Pages: 1 -->
<svg width="1309pt" height="404pt"
 viewBox="0.00 0.00 1308.98 404.00" xmlns="http://www.w3.org/2000/svg" xmlns:xlink="http://www.w3.org/1999/xlink">
<g id="graph0" class="graph" transform="scale(1 1) rotate(0) translate(4 400)">
<polygon fill="white" stroke="transparent" points="-4,4 -4,-400 1304.98,-400 1304.98,4 -4,4"/>
<!-- atlantis_ecs_service -->
<g id="node1" class="node">
<title>atlantis_ecs_service</title>
<ellipse fill="none" stroke="black" cx="330.02" cy="-306" rx="83.39" ry="18"/>
<text text-anchor="middle" x="330.02" y="-302.3" font-family="Times,serif" font-size="14.00">atlantis_ecs_service</text>
</g>
<!-- ecs_cluster -->
<g id="node2" class="node">
<title>ecs_cluster</title>
<ellipse fill="none" stroke="black" cx="574.02" cy="-90" rx="51.19" ry="18"/>
<text text-anchor="middle" x="574.02" y="-86.3" font-family="Times,serif" font-size="14.00">ecs_cluster</text>
</g>
<!-- atlantis_ecs_service&#45;&gt;ecs_cluster -->
<g id="edge1" class="edge">
<title>atlantis_ecs_service&#45;&gt;ecs_cluster</title>
<path fill="none" stroke="black" d="M357.34,-288.98C393.43,-267.07 457.92,-225.29 505.02,-180 525.21,-160.58 544.42,-135.01 557.42,-116.27"/>
<polygon fill="black" stroke="black" points="560.36,-118.16 563.1,-107.93 554.58,-114.22 560.36,-118.16"/>
</g>
<!-- atlantis_ecs_task_definition -->
<g id="node3" class="node">
<title>atlantis_ecs_task_definition</title>
<ellipse fill="none" stroke="black" cx="160.02" cy="-234" rx="112.38" ry="18"/>
<text text-anchor="middle" x="160.02" y="-230.3" font-family="Times,serif" font-size="14.00">atlantis_ecs_task_definition</text>
</g>
<!-- atlantis_ecs_service&#45;&gt;atlantis_ecs_task_definition -->
<g id="edge2" class="edge">
<title>atlantis_ecs_service&#45;&gt;atlantis_ecs_task_definition</title>
<path fill="none" stroke="black" d="M293.13,-289.81C268.23,-279.56 235.13,-265.93 208.16,-254.82"/>
<polygon fill="black" stroke="black" points="209.48,-251.58 198.9,-251.01 206.81,-258.05 209.48,-251.58"/>
</g>
<!-- network -->
<g id="node4" class="node">
<title>network</title>
<ellipse fill="none" stroke="black" cx="469.02" cy="-18" rx="40.09" ry="18"/>
<text text-anchor="middle" x="469.02" y="-14.3" font-family="Times,serif" font-size="14.00">network</text>
</g>
<!-- atlantis_ecs_service&#45;&gt;network -->
<g id="edge3" class="edge">
<title>atlantis_ecs_service&#45;&gt;network</title>
<path fill="none" stroke="black" d="M252.36,-299.36C177.44,-292.45 70.85,-278.27 39.02,-252 0.77,-220.43 -9.57,-189.11 11.02,-144 31.29,-99.57 49.58,-92.25 94.02,-72 151.07,-46.01 331.21,-29.33 419.4,-22.51"/>
<polygon fill="black" stroke="black" points="419.72,-26 429.43,-21.75 419.19,-19.02 419.72,-26"/>
</g>
<!-- security_groups -->
<g id="node5" class="node">
<title>security_groups</title>
<ellipse fill="none" stroke="black" cx="372.02" cy="-90" rx="68.79" ry="18"/>
<text text-anchor="middle" x="372.02" y="-86.3" font-family="Times,serif" font-size="14.00">security_groups</text>
</g>
<!-- atlantis_ecs_service&#45;&gt;security_groups -->
<g id="edge4" class="edge">
<title>atlantis_ecs_service&#45;&gt;security_groups</title>
<path fill="none" stroke="black" d="M330.41,-287.77C331.45,-257.97 335.24,-195.09 349.02,-144 351.42,-135.09 355.07,-125.74 358.75,-117.42"/>
<polygon fill="black" stroke="black" points="361.99,-118.75 363.02,-108.2 355.64,-115.8 361.99,-118.75"/>
</g>
<!-- service_registry -->
<g id="node6" class="node">
<title>service_registry</title>
<ellipse fill="none" stroke="black" cx="427.02" cy="-162" rx="68.79" ry="18"/>
<text text-anchor="middle" x="427.02" y="-158.3" font-family="Times,serif" font-size="14.00">service_registry</text>
</g>
<!-- atlantis_ecs_service&#45;&gt;service_registry -->
<g id="edge5" class="edge">
<title>atlantis_ecs_service&#45;&gt;service_registry</title>
<path fill="none" stroke="black" d="M341.52,-288.15C358.44,-263.39 390.15,-216.97 409.83,-188.16"/>
<polygon fill="black" stroke="black" points="412.77,-190.06 415.52,-179.82 406.99,-186.11 412.77,-190.06"/>
</g>
<!-- ecs_cluster&#45;&gt;network -->
<g id="edge11" class="edge">
<title>ecs_cluster&#45;&gt;network</title>
<path fill="none" stroke="black" d="M551.23,-73.81C536.07,-63.7 515.97,-50.3 499.44,-39.28"/>
<polygon fill="black" stroke="black" points="500.94,-36.08 490.68,-33.44 497.06,-41.9 500.94,-36.08"/>
</g>
<!-- atlantis_ssm_parameters -->
<g id="node7" class="node">
<title>atlantis_ssm_parameters</title>
<ellipse fill="none" stroke="black" cx="130.02" cy="-162" rx="100.18" ry="18"/>
<text text-anchor="middle" x="130.02" y="-158.3" font-family="Times,serif" font-size="14.00">atlantis_ssm_parameters</text>
</g>
<!-- atlantis_ecs_task_definition&#45;&gt;atlantis_ssm_parameters -->
<g id="edge6" class="edge">
<title>atlantis_ecs_task_definition&#45;&gt;atlantis_ssm_parameters</title>
<path fill="none" stroke="black" d="M152.6,-215.7C149.22,-207.81 145.15,-198.3 141.39,-189.55"/>
<polygon fill="black" stroke="black" points="144.5,-187.92 137.35,-180.1 138.07,-190.67 144.5,-187.92"/>
</g>
<!-- efs -->
<g id="node8" class="node">
<title>efs</title>
<ellipse fill="none" stroke="black" cx="275.02" cy="-162" rx="27" ry="18"/>
<text text-anchor="middle" x="275.02" y="-158.3" font-family="Times,serif" font-size="14.00">efs</text>
</g>
<!-- atlantis_ecs_task_definition&#45;&gt;efs -->
<g id="edge7" class="edge">
<title>atlantis_ecs_task_definition&#45;&gt;efs</title>
<path fill="none" stroke="black" d="M187.27,-216.41C205.14,-205.53 228.47,-191.33 246.57,-180.31"/>
<polygon fill="black" stroke="black" points="248.79,-183.06 255.51,-174.87 245.15,-177.08 248.79,-183.06"/>
</g>
<!-- kms -->
<g id="node9" class="node">
<title>kms</title>
<ellipse fill="none" stroke="black" cx="130.02" cy="-90" rx="27" ry="18"/>
<text text-anchor="middle" x="130.02" y="-86.3" font-family="Times,serif" font-size="14.00">kms</text>
</g>
<!-- atlantis_ecs_task_definition&#45;&gt;kms -->
<g id="edge8" class="edge">
<title>atlantis_ecs_task_definition&#45;&gt;kms</title>
<path fill="none" stroke="black" d="M82.21,-220.94C58.63,-213.24 35.23,-200.63 21.02,-180 11.94,-166.82 12.53,-157.56 21.02,-144 36.91,-118.6 68.84,-105.06 94.05,-98.04"/>
<polygon fill="black" stroke="black" points="95.21,-101.36 104.03,-95.5 93.48,-94.58 95.21,-101.36"/>
</g>
<!-- security_groups&#45;&gt;network -->
<g id="edge25" class="edge">
<title>security_groups&#45;&gt;network</title>
<path fill="none" stroke="black" d="M394.51,-72.76C408.17,-62.91 425.74,-50.23 440.39,-39.66"/>
<polygon fill="black" stroke="black" points="442.56,-42.41 448.62,-33.72 438.46,-36.73 442.56,-42.41"/>
</g>
<!-- service_registry&#45;&gt;network -->
<g id="edge26" class="edge">
<title>service_registry&#45;&gt;network</title>
<path fill="none" stroke="black" d="M435.58,-143.67C440.35,-133.48 446.1,-120.23 450.02,-108 456.55,-87.59 461.49,-63.83 464.7,-45.99"/>
<polygon fill="black" stroke="black" points="468.17,-46.44 466.42,-35.99 461.27,-45.25 468.17,-46.44"/>
</g>
<!-- atlantis_ssm_parameters&#45;&gt;kms -->
<g id="edge9" class="edge">
<title>atlantis_ssm_parameters&#45;&gt;kms</title>
<path fill="none" stroke="black" d="M130.02,-143.7C130.02,-135.98 130.02,-126.71 130.02,-118.11"/>
<polygon fill="black" stroke="black" points="133.52,-118.1 130.02,-108.1 126.52,-118.1 133.52,-118.1"/>
</g>
<!-- efs&#45;&gt;network -->
<g id="edge13" class="edge">
<title>efs&#45;&gt;network</title>
<path fill="none" stroke="black" d="M273.85,-143.96C273.45,-124.15 275.94,-91.65 294.02,-72 325.84,-37.39 379.42,-25.09 418.92,-20.87"/>
<polygon fill="black" stroke="black" points="419.26,-24.35 428.9,-19.94 418.61,-17.38 419.26,-24.35"/>
</g>
<!-- efs&#45;&gt;security_groups -->
<g id="edge14" class="edge">
<title>efs&#45;&gt;security_groups</title>
<path fill="none" stroke="black" d="M292.81,-148.16C306.28,-138.44 325.13,-124.84 341.06,-113.34"/>
<polygon fill="black" stroke="black" points="343.5,-115.9 349.56,-107.21 339.4,-110.22 343.5,-115.9"/>
</g>
<!-- efs&#45;&gt;kms -->
<g id="edge12" class="edge">
<title>efs&#45;&gt;kms</title>
<path fill="none" stroke="black" d="M253.62,-150.67C229.1,-138.83 188.7,-119.33 160.8,-105.86"/>
<polygon fill="black" stroke="black" points="162.03,-102.57 151.5,-101.37 158.98,-108.87 162.03,-102.57"/>
</g>
<!-- cloudflare_ip_ranges -->
<g id="node10" class="node">
<title>cloudflare_ip_ranges</title>
<ellipse fill="none" stroke="black" cx="716.02" cy="-162" rx="87.99" ry="18"/>
<text text-anchor="middle" x="716.02" y="-158.3" font-family="Times,serif" font-size="14.00">cloudflare_ip_ranges</text>
</g>
<!-- cloudflare_origin_certificate -->
<g id="node11" class="node">
<title>cloudflare_origin_certificate</title>
<ellipse fill="none" stroke="black" cx="937.02" cy="-162" rx="115.08" ry="18"/>
<text text-anchor="middle" x="937.02" y="-158.3" font-family="Times,serif" font-size="14.00">cloudflare_origin_certificate</text>
</g>
<!-- cloudflare_records -->
<g id="node12" class="node">
<title>cloudflare_records</title>
<ellipse fill="none" stroke="black" cx="716.02" cy="-378" rx="78.79" ry="18"/>
<text text-anchor="middle" x="716.02" y="-374.3" font-family="Times,serif" font-size="14.00">cloudflare_records</text>
</g>
<!-- route53 -->
<g id="node13" class="node">
<title>route53</title>
<ellipse fill="none" stroke="black" cx="716.02" cy="-306" rx="38.19" ry="18"/>
<text text-anchor="middle" x="716.02" y="-302.3" font-family="Times,serif" font-size="14.00">route53</text>
</g>
<!-- cloudflare_records&#45;&gt;route53 -->
<g id="edge10" class="edge">
<title>cloudflare_records&#45;&gt;route53</title>
<path fill="none" stroke="black" d="M716.02,-359.7C716.02,-351.98 716.02,-342.71 716.02,-334.11"/>
<polygon fill="black" stroke="black" points="719.52,-334.1 716.02,-324.1 712.52,-334.1 719.52,-334.1"/>
</g>
<!-- proxy_ecs_service -->
<g id="node15" class="node">
<title>proxy_ecs_service</title>
<ellipse fill="none" stroke="black" cx="716.02" cy="-234" rx="78.79" ry="18"/>
<text text-anchor="middle" x="716.02" y="-230.3" font-family="Times,serif" font-size="14.00">proxy_ecs_service</text>
</g>
<!-- route53&#45;&gt;proxy_ecs_service -->
<g id="edge24" class="edge">
<title>route53&#45;&gt;proxy_ecs_service</title>
<path fill="none" stroke="black" d="M716.02,-287.7C716.02,-279.98 716.02,-270.71 716.02,-262.11"/>
<polygon fill="black" stroke="black" points="719.52,-262.1 716.02,-252.1 712.52,-262.1 719.52,-262.1"/>
</g>
<!-- iam_role -->
<g id="node14" class="node">
<title>iam_role</title>
<ellipse fill="none" stroke="black" cx="856.02" cy="-378" rx="42.79" ry="18"/>
<text text-anchor="middle" x="856.02" y="-374.3" font-family="Times,serif" font-size="14.00">iam_role</text>
</g>
<!-- proxy_ecs_service&#45;&gt;ecs_cluster -->
<g id="edge16" class="edge">
<title>proxy_ecs_service&#45;&gt;ecs_cluster</title>
<path fill="none" stroke="black" d="M677.02,-218.24C657.72,-209.43 635.17,-196.68 619.02,-180 601.86,-162.29 589.87,-136.74 582.6,-117.56"/>
<polygon fill="black" stroke="black" points="585.81,-116.14 579.14,-107.91 579.22,-118.51 585.81,-116.14"/>
</g>
<!-- proxy_ecs_service&#45;&gt;network -->
<g id="edge15" class="edge">
<title>proxy_ecs_service&#45;&gt;network</title>
<path fill="none" stroke="black" d="M794.21,-231.55C944.11,-227.96 1260.05,-216.14 1293.02,-180 1303.8,-168.18 1303.41,-156.16 1293.02,-144 1192.36,-26.2 683.39,-18.02 519.76,-18.49"/>
<polygon fill="black" stroke="black" points="519.47,-14.99 509.49,-18.53 519.5,-21.99 519.47,-14.99"/>
</g>
<!-- proxy_ecs_service&#45;&gt;security_groups -->
<g id="edge20" class="edge">
<title>proxy_ecs_service&#45;&gt;security_groups</title>
<path fill="none" stroke="black" d="M680.45,-217.9C629.49,-196.28 538.21,-157.61 505.02,-144 476.16,-132.17 443.64,-119.2 417.98,-109.06"/>
<polygon fill="black" stroke="black" points="419.09,-105.73 408.5,-105.31 416.52,-112.24 419.09,-105.73"/>
</g>
<!-- proxy_ecs_service&#45;&gt;service_registry -->
<g id="edge18" class="edge">
<title>proxy_ecs_service&#45;&gt;service_registry</title>
<path fill="none" stroke="black" d="M664.01,-220.4C613.79,-208.24 537.83,-189.84 485.52,-177.17"/>
<polygon fill="black" stroke="black" points="486.25,-173.75 475.71,-174.79 484.61,-180.55 486.25,-173.75"/>
</g>
<!-- proxy_ecs_service&#45;&gt;cloudflare_ip_ranges -->
<g id="edge19" class="edge">
<title>proxy_ecs_service&#45;&gt;cloudflare_ip_ranges</title>
<path fill="none" stroke="black" d="M716.02,-215.7C716.02,-207.98 716.02,-198.71 716.02,-190.11"/>
<polygon fill="black" stroke="black" points="719.52,-190.1 716.02,-180.1 712.52,-190.1 719.52,-190.1"/>
</g>
<!-- proxy_ecs_service&#45;&gt;cloudflare_origin_certificate -->
<g id="edge21" class="edge">
<title>proxy_ecs_service&#45;&gt;cloudflare_origin_certificate</title>
<path fill="none" stroke="black" d="M760.21,-219C794.2,-208.23 841.49,-193.26 878.6,-181.5"/>
<polygon fill="black" stroke="black" points="879.82,-184.79 888.29,-178.43 877.7,-178.12 879.82,-184.79"/>
</g>
<!-- proxy_ecs_task_definition -->
<g id="node16" class="node">
<title>proxy_ecs_task_definition</title>
<ellipse fill="none" stroke="black" cx="1177.02" cy="-162" rx="107.48" ry="18"/>
<text text-anchor="middle" x="1177.02" y="-158.3" font-family="Times,serif" font-size="14.00">proxy_ecs_task_definition</text>
</g>
<!-- proxy_ecs_service&#45;&gt;proxy_ecs_task_definition -->
<g id="edge17" class="edge">
<title>proxy_ecs_service&#45;&gt;proxy_ecs_task_definition</title>
<path fill="none" stroke="black" d="M779.63,-223.34C860.34,-211.09 999.88,-189.9 1090.29,-176.17"/>
<polygon fill="black" stroke="black" points="1090.89,-179.62 1100.25,-174.66 1089.83,-172.7 1090.89,-179.62"/>
</g>
<!-- proxy_ecs_task_definition&#45;&gt;ecs_cluster -->
<g id="edge22" class="edge">
<title>proxy_ecs_task_definition&#45;&gt;ecs_cluster</title>
<path fill="none" stroke="black" d="M1100.32,-149.35C1087.22,-147.48 1073.74,-145.62 1061.02,-144 906.88,-124.32 724.69,-105.74 633.01,-96.71"/>
<polygon fill="black" stroke="black" points="633.11,-93.2 622.82,-95.71 632.43,-100.17 633.11,-93.2"/>
</g>
<!-- proxy_ecs_task_definition&#45;&gt;network -->
<g id="edge23" class="edge">
<title>proxy_ecs_task_definition&#45;&gt;network</title>
<path fill="none" stroke="black" d="M1111.04,-147.77C968.95,-119.27 636.97,-52.69 515.01,-28.23"/>
<polygon fill="black" stroke="black" points="515.39,-24.73 504.89,-26.2 514.01,-31.59 515.39,-24.73"/>
</g>
</g>
</svg>
